<svg xmlns="http://www.w3.org/2000/svg" viewBox="0 0 500 500"><g id="freepik--background-simple--inject-262"><path d="M469.29,169.51c-31.68-54.89-100-101-162.68-106.95C212.84,53.72,185.09,154.86,163.83,194c-12.74,23.43-28,42.91-53.12,52.85-30,11.87-65.4,11-84.4,41.75C15.25,306.41,13.66,330.46,20,350.31c6.43,20.32,22,36.59,39.89,47.87,59.83,37.76,134.58,45.84,203.68,47.26C371.41,447.66,471.84,348,484,241.58,487,215.66,482.4,192.22,469.29,169.51Z" style="fill:#1E293B"></path><path d="M469.29,169.51c-31.68-54.89-100-101-162.68-106.95C212.84,53.72,185.09,154.86,163.83,194c-12.74,23.43-28,42.91-53.12,52.85-30,11.87-65.4,11-84.4,41.75C15.25,306.41,13.66,330.46,20,350.31c6.43,20.32,22,36.59,39.89,47.87,59.83,37.76,134.58,45.84,203.68,47.26C371.41,447.66,471.84,348,484,241.58,487,215.66,482.4,192.22,469.29,169.51Z" style="fill:#fff;opacity:0.8"></path></g><g id="freepik--Clouds--inject-262"><path d="M466.42,148.61c-3-1.66-4.43-.28-5.54-1.66s3.05-5-5.26-8.59c0,0-.56-7.76-11.92-8s-8.31,7.76-11.36,9.7-3.87-1.11-6.92.83-1.67,5.82-4.16,6.38-5.82-2.5-8.87-.56-3,3.6-4.43,3.6-4.15-1.1-5.82,0-3.6,2.5-3.6,2.5h70.1S469.47,150.27,466.42,148.61Z" style="fill:none;stroke:#92989b;stroke-linecap:round;stroke-linejoin:round"></path><path d="M425,147.47a9.76,9.76,0,0,1-1.24.59" style="fill:none;stroke:#92989b;stroke-linecap:round;stroke-linejoin:round"></path><path d="M440,134.53a4.72,4.72,0,0,0-2.7,3.38c-.51,2.54-1.69,4.23-3.05,4.4s-6.42-.34-7.27,1.52a7.74,7.74,0,0,0-.47,1.7" style="fill:none;stroke:#92989b;stroke-linecap:round;stroke-linejoin:round"></path><path d="M415.57,96.85c-2.35-1.28-3.42-.21-4.27-1.28s2.35-3.84-4.05-6.61c0,0-.43-6-9.18-6.19s-6.4,6-8.75,7.47-3-.86-5.34.64-1.28,4.48-3.2,4.91-4.48-1.92-6.83-.43-2.34,2.77-3.41,2.77-3.2-.85-4.48,0-2.78,1.92-2.78,1.92h54S417.92,98.13,415.57,96.85Z" style="fill:none;stroke:#92989b;stroke-linecap:round;stroke-linejoin:round"></path><path d="M383.63,96a9.73,9.73,0,0,1-.95.45" style="fill:none;stroke:#92989b;stroke-linecap:round;stroke-linejoin:round"></path><path d="M395.18,86a3.64,3.64,0,0,0-2.08,2.6c-.39,2-1.31,3.26-2.35,3.39s-4.95-.26-5.6,1.17a5.43,5.43,0,0,0-.36,1.31" style="fill:none;stroke:#92989b;stroke-linecap:round;stroke-linejoin:round"></path><line x1="378.22" y1="95.51" x2="381.97" y2="95.51" style="fill:none;stroke:#92989b;stroke-linecap:round;stroke-linejoin:round"></line><path d="M411.3,95.51h25.24s2-6.09-5.41-10.15-10.82-.67-13.53-4,7.44-12.17-12.84-21c0,0-1.35-18.93-29.08-19.61S355.4,59.67,348,64.4s-9.46-2.7-16.9,2S327,80.63,320.92,82s-14.2-6.08-21.64-1.35-7.44,8.79-10.82,8.79-10.14-2.7-14.2,0-8.79,6.09-8.79,6.09H374" style="fill:none;stroke:#92989b;stroke-linecap:round;stroke-linejoin:round"></path><path d="M329.93,82.59a24.12,24.12,0,0,1-3,1.42" style="fill:none;stroke:#92989b;stroke-linecap:round;stroke-linejoin:round"></path><path d="M333.6,77.84a18.47,18.47,0,0,1,1.15-4.14c2.07-4.54,14.45-3.3,17.75-3.72s6.19-4.54,7.43-10.72a11.54,11.54,0,0,1,6.6-8.26" style="fill:none;stroke:#92989b;stroke-linecap:round;stroke-linejoin:round"></path></g><g id="freepik--Trees--inject-262"><path d="M152.55,186.76s30.39-15.2,55.09,8.55c.33.32.66.6,1,.92a86.24,86.24,0,0,0,33.21-67.89c0-48-39.56-86.91-88.34-86.91S65.16,80.34,65.16,128.34a86.22,86.22,0,0,0,33.39,68C104.08,192.3,129.8,175,152.55,186.76Z" style="fill:#1E293B"></path><path d="M152.55,186.76s30.39-15.2,55.09,8.55c.33.32.66.6,1,.92a86.24,86.24,0,0,0,33.21-67.89c0-48-39.56-86.91-88.34-86.91S65.16,80.34,65.16,128.34a86.22,86.22,0,0,0,33.39,68C104.08,192.3,129.8,175,152.55,186.76Z" style="fill:#fff;opacity:0.4"></path><polygon points="122.03 168.2 151.06 177.93 149.65 466.04 156.87 466.04 155.29 164.47 177.75 151.99 209.93 155.63 181.11 150.12 216.49 130.47 194.81 141.07 198.06 130.78 212.66 119.25 199 127.83 203.09 114.88 193.52 137.95 185.49 128.25 189.97 113.23 184.1 126.57 174.65 115.15 192.34 140.77 191.56 142.66 155.19 160.44 154.3 126.09 165.16 113.55 197.08 105.3 184.12 107.54 190.24 100.66 181.67 107.97 167.95 110.33 183.68 92.18 171.2 104.2 172.19 88.89 169.24 106.08 154.16 120.61 153.5 94.62 153.04 110.22 147.61 101 149.68 89.83 161.25 78.78 150.27 86.62 153.59 68.66 145.85 98.01 138.55 85.61 143.53 95.58 130.89 91.63 144.94 98.39 152.92 114.35 152.18 139.64 135.4 126.71 131.22 116.34 133.08 100.93 129.8 112.69 130.04 113.41 122.69 95.19 133.03 124.88 117.22 112.69 137.15 130.69 107.1 128.82 123.56 131.18 103.27 136.75 127.69 131.77 140.35 133.57 152.05 144.14 151.2 172.96 131.5 168.57 112.84 145.51 122.75 159.47 99.72 153.71 125.41 163.22 128.77 167.96 106.55 163.01 118.22 166.92 95.07 172.31 122.03 168.2" style="fill:#c2c2c2"></polygon><path d="M337.76,222.09s25.14-12.57,45.57,7.07c.28.27.54.5.82.76a71.31,71.31,0,0,0,27.46-56.14c0-39.7-32.71-71.89-73.06-71.89s-73.06,32.19-73.06,71.89A71.29,71.29,0,0,0,293.11,230C297.68,226.67,319,212.34,337.76,222.09Z" style="fill:#1E293B"></path><path d="M337.76,222.09s25.14-12.57,45.57,7.07c.28.27.54.5.82.76a71.31,71.31,0,0,0,27.46-56.14c0-39.7-32.71-71.89-73.06-71.89s-73.06,32.19-73.06,71.89A71.29,71.29,0,0,0,293.11,230C297.68,226.67,319,212.34,337.76,222.09Z" style="fill:#fff;opacity:0.6000000000000001"></path><polygon points="312.52 206.74 336.53 214.79 335.37 466.04 341.33 466.04 340.03 203.65 358.6 193.34 385.22 196.34 361.38 191.79 390.65 175.53 372.71 184.3 375.41 175.79 387.48 166.26 376.18 173.35 379.57 162.64 371.65 181.72 365.01 173.7 368.71 161.28 363.86 172.31 356.04 162.87 370.68 184.05 370.03 185.61 339.94 200.33 339.22 171.91 348.2 161.54 374.59 154.72 363.87 156.57 368.94 150.88 361.85 156.92 350.5 158.88 363.51 143.87 353.19 153.81 354.01 141.15 351.57 155.37 339.1 167.39 338.55 145.89 338.17 158.79 333.68 151.16 335.39 141.93 344.96 132.78 335.88 139.27 338.63 124.41 332.23 148.69 326.19 138.44 330.31 146.68 319.85 143.41 331.47 149.01 338.07 162.2 337.46 183.12 323.58 172.43 320.13 163.85 321.66 151.1 318.95 160.83 319.15 161.43 313.07 146.35 321.62 170.91 308.54 160.83 325.03 175.71 300.18 174.17 313.79 176.12 297.01 180.73 317.21 176.61 327.67 178.1 337.35 186.84 336.65 210.68 320.36 207.05 304.93 187.97 313.12 199.52 294.07 194.76 315.31 202.62 318.1 206.54 299.72 202.45 309.38 205.68 290.22 210.14 312.52 206.74" style="fill:#c2c2c2"></polygon></g><g id="freepik--silhouette-3--inject-262"><path d="M289.5,217.33a40.5,40.5,0,0,0-1.86,7.06c-.37,3,2.23,5.58,2.23,5.58s-5.57,12.63-4.09,14.49,6,3,6,3,1.86,16,4.83,16.72,14.12-4.46,14.12-4.46l5.95,16.35s-11.15,22.67-11.89,25.65l-.75,3s-7.8.37-9.29,3.35-1.86,4.46,0,5.57-3,8.18-1.11,11.52,4.09,3,4.09,5.21-1.12,2.23.74,4.08,6.69,3.35,6.69,3.35.74,31.59.74,41.62,0,13.76,3,16l3,2.23s-4.09,24.9-4.46,39.39c-.3,11.6-.6,24.62-.7,29.36h33.13c1.11-4.38,3.85-15.36,4.74-20.07A143.72,143.72,0,0,1,349,430.66l6,35.68h28.3c-.9-6.52-3.83-28.52-3.83-38.28V393.87c0-5.2-.37-8.92-.37-8.92s8.92-2.23,14.12-13,3.72-36.42,3.35-49.8-7.81-25.27-12.27-30.11a63.61,63.61,0,0,0-10-8.54s-13-12.27-19.33-16.36-16-7.43-16-7.43l-4.46-10.78s1.49-13.38,2.23-16,3.35-13.75.74-21.18S324.81,201.35,320,200.61s-14.87-1.86-14.13-.75,3,4.09,3,4.09-18.59-4.46-19-2.23,6.69,4.83,6.69,4.83-18.95,1.49-20.07,5.21S289.5,217.33,289.5,217.33Z" style="fill:#263238"></path><path d="M289.5,217.33a40.5,40.5,0,0,0-1.86,7.06c-.37,3,2.23,5.58,2.23,5.58s-5.57,12.63-4.09,14.49,6,3,6,3,1.86,16,4.83,16.72,14.12-4.46,14.12-4.46l5.95,16.35s-11.15,22.67-11.89,25.65l-.75,3s-7.8.37-9.29,3.35-1.86,4.46,0,5.57-3,8.18-1.11,11.52,4.09,3,4.09,5.21-1.12,2.23.74,4.08,6.69,3.35,6.69,3.35.74,31.59.74,41.62,0,13.76,3,16l3,2.23s-4.09,24.9-4.46,39.39c-.3,11.6-.6,24.62-.7,29.36h33.13c1.11-4.38,3.85-15.36,4.74-20.07A143.72,143.72,0,0,1,349,430.66l6,35.68h28.3c-.9-6.52-3.83-28.52-3.83-38.28V393.87c0-5.2-.37-8.92-.37-8.92s8.92-2.23,14.12-13,3.72-36.42,3.35-49.8-7.81-25.27-12.27-30.11a63.61,63.61,0,0,0-10-8.54s-13-12.27-19.33-16.36-16-7.43-16-7.43l-4.46-10.78s1.49-13.38,2.23-16,3.35-13.75.74-21.18S324.81,201.35,320,200.61s-14.87-1.86-14.13-.75,3,4.09,3,4.09-18.59-4.46-19-2.23,6.69,4.83,6.69,4.83-18.95,1.49-20.07,5.21S289.5,217.33,289.5,217.33Z" style="fill:#fff;opacity:0.5"></path></g><g id="freepik--silhouette-4--inject-262"><path d="M332.25,300.29c1.95,1,12.18,5.36,12.18,5.36l-2.92-3.42c-2.93-3.41-2.93-2.92-2.93-4.87s4.88,1,8.29,3.41a15.59,15.59,0,0,1,4.87,5.85l3.9,10.24,10.72,9.25,8.33-26.87,3.37-22.83,2.92-2c1.23-.59-3.35-9.07-.9-9.1a72.55,72.55,0,0,0,7.84-.42l1.37-.16a31.2,31.2,0,0,1,1.57-9.41c.4-1.2.76-2.4,1.05-3.61a52.74,52.74,0,0,1-3.93-10c-.42-1.54-.74-3.05-1-4.51-3.05-1.45-11.33-5.58-13-8.36-2.27-3.72,7.8-18.34,17.66-25.64,10.12-7.49,23.23-6.5,31-1.65,7.13,4.48,9.73,11.91,11.83,17.88.23.65.45,1.29.67,1.89a35.16,35.16,0,0,0,2.44,5.3s14.36,15.69,20.93,20.18c7.5,5.12,23.1,15.79,15.83,30.34-.38.76-.77,1.48-1.15,2.19-2.68,5-4.79,8.94,0,17.25,1.26,2.18,2.51,4.06,3.72,5.88,4.16,6.24,7.16,10.75,3.83,18.31l-.54,1.25c-2.88,6.64-6.84,15.72-17,18.29-1,1.78-2.53,3.9-4.78,4.61a27.64,27.64,0,0,1-3.45.85c2.22,8,6.94,24.31,10.09,31,2.32,4.93,3.14,8.18,2.42,9.65a1.21,1.21,0,0,1-.68.67,62.56,62.56,0,0,1-7.55,2.55,43.44,43.44,0,0,1,0,5.07c-1,17.53-11,52.28-11.13,52.63a.54.54,0,0,1-.38.37c-.08,0-3,.81-7.52,1.8a43.54,43.54,0,0,0,.1,16.76H392.71a136,136,0,0,0-4.6-14.86,91.48,91.48,0,0,1-9.91-2.7.54.54,0,0,1-.35-.43c-.07-.47-5.49-39.1-5.43-63.91a15.51,15.51,0,0,1-5.53,1.25h-.14a.45.45,0,0,1-.28-.1h0l-.05-.05s-.06,0-.08-.08,0,0,0-.06a.69.69,0,0,1,0-.1.49.49,0,0,1,0-.17s0,0,0-.07c.05-.26,3.21-17.6,5.43-33.09a15.63,15.63,0,0,1-4.82-1.48c-2.44-1.46-25.34-21-25.34-21l3.41-6.83s-13.65-7.31-16.57-9.74-3.9-10.24-3.9-15.11S330.3,299.31,332.25,300.29Z" style="fill:#263238"></path><path d="M332.25,300.29c1.95,1,12.18,5.36,12.18,5.36l-2.92-3.42c-2.93-3.41-2.93-2.92-2.93-4.87s4.88,1,8.29,3.41a15.59,15.59,0,0,1,4.87,5.85l3.9,10.24,10.72,9.25,8.33-26.87,3.37-22.83,2.92-2c1.23-.59-3.35-9.07-.9-9.1a72.55,72.55,0,0,0,7.84-.42l1.37-.16a31.2,31.2,0,0,1,1.57-9.41c.4-1.2.76-2.4,1.05-3.61a52.74,52.74,0,0,1-3.93-10c-.42-1.54-.74-3.05-1-4.51-3.05-1.45-11.33-5.58-13-8.36-2.27-3.72,7.8-18.34,17.66-25.64,10.12-7.49,23.23-6.5,31-1.65,7.13,4.48,9.73,11.91,11.83,17.88.23.65.45,1.29.67,1.89a35.16,35.16,0,0,0,2.44,5.3s14.36,15.69,20.93,20.18c7.5,5.12,23.1,15.79,15.83,30.34-.38.76-.77,1.48-1.15,2.19-2.68,5-4.79,8.94,0,17.25,1.26,2.18,2.51,4.06,3.72,5.88,4.16,6.24,7.16,10.75,3.83,18.31l-.54,1.25c-2.88,6.64-6.84,15.72-17,18.29-1,1.78-2.53,3.9-4.78,4.61a27.64,27.64,0,0,1-3.45.85c2.22,8,6.94,24.31,10.09,31,2.32,4.93,3.14,8.18,2.42,9.65a1.21,1.21,0,0,1-.68.67,62.56,62.56,0,0,1-7.55,2.55,43.44,43.44,0,0,1,0,5.07c-1,17.53-11,52.28-11.13,52.63a.54.54,0,0,1-.38.37c-.08,0-3,.81-7.52,1.8a43.54,43.54,0,0,0,.1,16.76H392.71a136,136,0,0,0-4.6-14.86,91.48,91.48,0,0,1-9.91-2.7.54.54,0,0,1-.35-.43c-.07-.47-5.49-39.1-5.43-63.91a15.51,15.51,0,0,1-5.53,1.25h-.14a.45.45,0,0,1-.28-.1h0l-.05-.05s-.06,0-.08-.08,0,0,0-.06a.69.69,0,0,1,0-.1.49.49,0,0,1,0-.17s0,0,0-.07c.05-.26,3.21-17.6,5.43-33.09a15.63,15.63,0,0,1-4.82-1.48c-2.44-1.46-25.34-21-25.34-21l3.41-6.83s-13.65-7.31-16.57-9.74-3.9-10.24-3.9-15.11S330.3,299.31,332.25,300.29Z" style="fill:#fff;opacity:0.2"></path></g><g id="freepik--silhouette-2--inject-262"><path d="M117.86,286.31c1.55,7.23,8.57,7.62,9.73,11.28S130,308.05,124.53,318s-7,16.87-4.69,21.05,10.67,9.81,10.67,9.81-6.2,17-6.12,26.77,4.78,13.47,4.78,13.47-.78,3.44,1.38,5.25,2.4,3,2.4,3,3.1,35.64,4.26,42.83S140.55,453,139,455.71c-1.31,2.29-1.79,8.11-1.92,10.63h29.12a100.32,100.32,0,0,0,2-12.09c.56-5,1.46-16.7,1.46-16.7l9.8,28.79H207.6L202,403.5l6.4-.07,3.1-38.48s-4.86-51.52-5.42-53.54-9.5-20.27-12.82-25.74-13.12-12.44-13.12-12.44l.43-7.4s19.19,3.7,20.05-.51,1.25-14.76,1.25-14.76,5.64-1.34,5.51-3.71-4.51-8.73-4.51-8.73l-.26-4.74s6.84,1.94,9.34-2.88-1.85-8.05-1.85-8.05,6-4.43,1.94-13.9-16.83-10.89-21.05-8.22-4.91,5.33-8,5-17.61-.39-23.76,5.59-8,22.25-9.52,25.61S127.85,249.38,120.45,256s2.49,19.89,2.49,19.89S116.31,279.08,117.86,286.31Z" style="fill:#263238"></path><path d="M117.86,286.31c1.55,7.23,8.57,7.62,9.73,11.28S130,308.05,124.53,318s-7,16.87-4.69,21.05,10.67,9.81,10.67,9.81-6.2,17-6.12,26.77,4.78,13.47,4.78,13.47-.78,3.44,1.38,5.25,2.4,3,2.4,3,3.1,35.64,4.26,42.83S140.55,453,139,455.71c-1.31,2.29-1.79,8.11-1.92,10.63h29.12a100.32,100.32,0,0,0,2-12.09c.56-5,1.46-16.7,1.46-16.7l9.8,28.79H207.6L202,403.5l6.4-.07,3.1-38.48s-4.86-51.52-5.42-53.54-9.5-20.27-12.82-25.74-13.12-12.44-13.12-12.44l.43-7.4s19.19,3.7,20.05-.51,1.25-14.76,1.25-14.76,5.64-1.34,5.51-3.71-4.51-8.73-4.51-8.73l-.26-4.74s6.84,1.94,9.34-2.88-1.85-8.05-1.85-8.05,6-4.43,1.94-13.9-16.83-10.89-21.05-8.22-4.91,5.33-8,5-17.61-.39-23.76,5.59-8,22.25-9.52,25.61S127.85,249.38,120.45,256s2.49,19.89,2.49,19.89S116.31,279.08,117.86,286.31Z" style="fill:#fff;opacity:0.5"></path></g><g id="freepik--silhouette-1--inject-262"><path d="M142.33,466.34l-2.81-4.75.16.13s.6-19.13-1.2-25.11-11.95-19.72-11.95-19.72L111.59,366.1c-1.55-21.76-3.23-45.1-3.7-50.31-.72-7.86-9.29-22.91-13.61-30.07l0-.15,8.1,6.83-2.56-15.35-6.68-4.23,2.35-13,7.08,1.66,4.64-.92,4.35-20.15,5.14-4.41-4.11-9.35,1.74-4.34-3-11.24,0,0,.1-.11.12-.12.12-.12c.05-.06.11-.11.16-.18l.13-.13.22-.23.12-.14c.09-.1.19-.2.28-.31l.1-.11.41-.47,0,0,.39-.46a1,1,0,0,0,.13-.16l.3-.36a1.56,1.56,0,0,0,.16-.2l.27-.34.17-.22.25-.33c.06-.08.11-.16.17-.23l.23-.34.16-.23.21-.33.14-.22.19-.34a2.25,2.25,0,0,0,.12-.21c.07-.12.12-.23.18-.35a1.3,1.3,0,0,0,.08-.17c.08-.17.14-.34.2-.5.42-1.26,0-3.28-1.21-5.29a12.67,12.67,0,0,0-8.25-6.13c-6.23-1.24-34.54-1.79-41.68,2.23h0c-4.4,2.47-5.45,6.92-5.51,11.49a61,61,0,0,0,.32,6.14c.07.81.14,1.6.19,2.36,0,.2,0,.42.06.65s0,.19,0,.28,0,.3.06.47,0,.22,0,.33.05.33.08.5.05.26.07.39.07.34.1.52l.09.45c0,.18.07.35.11.53s.07.33.1.49.08.37.13.56.07.35.11.52.09.39.14.59.09.37.13.55.09.39.14.6l.15.58.15.62.15.59c.05.21.11.42.16.64s.11.4.16.61l.17.65c.06.21.11.42.17.63s.11.43.17.64l.18.67c.06.21.11.42.17.63s.13.45.19.68.11.41.17.61.13.47.19.71.12.39.17.59.13.47.2.7.11.4.17.6.13.45.19.67l.18.61c.06.23.13.45.19.67l.17.59c.07.22.13.44.2.67s.1.36.16.54.13.45.19.66.11.37.16.55l.18.6c.06.19.12.39.17.58l.15.49c.07.22.13.43.19.64l.14.44c.06.2.11.39.17.58s.09.29.13.43l.18.58.09.31c.07.23.14.44.2.65l.06.19c.07.23.14.45.2.67l0,.09.81,2.6L67.12,256.9,66,256l-3.48,6S31.5,279.42,30.9,283s-3,32.27-4.18,37.05-14.35,46.62-12.56,49.61c1.19,2,13.78,19.24,22.24,30.8l-5,26.93.22.15A67.09,67.09,0,0,0,42,432.87l-2,33.47Z" style="fill:#263238"></path></g></svg>